<?xml version="1.0" standalone="no"?>
<!DOCTYPE svg PUBLIC "-//W3C//DTD SVG 20010904//EN"
 "http://www.w3.org/TR/2001/REC-SVG-20010904/DTD/svg10.dtd">
<svg version="1.0" xmlns="http://www.w3.org/2000/svg"
 width="500.000000pt" height="500.000000pt" viewBox="0 0 500.000000 500.000000"
 preserveAspectRatio="xMidYMid meet">

<g transform="translate(0.000000,500.000000) scale(0.100000,-0.100000)"
fill="#000000" stroke="none">
<path d="M0 2500 l0 -2500 2500 0 2500 0 0 2500 0 2500 -2500 0 -2500 0 0
-2500z m2735 1985 c452 -52 868 -257 1192 -587 163 -166 262 -306 368 -523
512 -1041 22 -2305 -1060 -2735 -73 -29 -304 -100 -326 -100 -11 0 -12 957 -2
1538 l6 392 86 0 86 -1 125 -259 125 -260 258 0 258 0 -60 113 c-33 61 -104
196 -159 299 l-99 187 53 26 c204 100 283 362 173 577 -52 102 -174 191 -297
217 -34 7 -222 11 -532 11 l-480 0 0 -1440 0 -1440 -44 0 c-80 0 -273 30 -391
60 -220 57 -430 149 -618 273 -290 189 -535 469 -692 790 -311 634 -263 1386
125 1977 149 227 356 431 590 583 75 48 240 137 255 137 3 0 4 -494 3 -1097
-3 -1074 -3 -1099 -23 -1131 -29 -49 -93 -76 -162 -69 -95 10 -129 46 -146
157 l-11 70 -238 0 -238 0 0 -72 c1 -258 147 -448 395 -513 216 -56 499 -37
669 46 135 66 216 169 256 325 19 75 20 115 20 1260 l0 1182 68 7 c37 3 74 8
82 9 43 10 271 4 385 -9z m530 -1439 c19 -8 44 -30 55 -48 41 -68 14 -165 -55
-194 -25 -10 -78 -14 -195 -14 l-160 0 0 135 0 135 160 0 c117 0 170 -4 195
-14z"/>
<path d="M2728 3863 c-3 -62 -5 -68 -28 -73 -35 -8 -32 -34 5 -38 51 -4 59 9
63 98 4 75 3 80 -16 80 -19 0 -21 -7 -24 -67z"/>
<path d="M2802 3854 c4 -85 17 -104 74 -104 52 0 64 21 64 106 0 67 -2 74 -20
74 -18 0 -20 -7 -20 -70 0 -67 -1 -70 -24 -70 -29 0 -36 16 -36 86 0 48 -2 54
-21 54 -20 0 -21 -4 -17 -76z"/>
<path d="M3024 3893 c-9 -21 -24 -58 -35 -82 -10 -24 -19 -47 -19 -52 0 -18
39 -8 45 11 5 15 15 20 42 20 26 0 36 -5 40 -20 3 -13 14 -20 28 -20 l23 0
-36 90 c-41 104 -62 116 -88 53z m46 -54 c0 -10 -7 -19 -15 -19 -16 0 -19 9
-9 34 8 20 24 11 24 -15z"/>
<path d="M3170 3840 c0 -83 1 -90 20 -90 18 0 20 7 20 58 l0 57 38 -57 c27
-42 43 -58 60 -58 21 0 22 3 22 90 0 83 -1 90 -20 90 -17 0 -20 -7 -20 -50 0
-27 -4 -50 -8 -50 -4 0 -21 22 -37 50 -22 36 -36 50 -52 50 -22 0 -23 -3 -23
-90z"/>
<path d="M2270 3540 c0 -82 2 -90 19 -90 16 0 20 8 23 37 l3 37 25 -37 c19
-28 32 -37 54 -37 l28 0 -32 36 c-29 33 -30 38 -16 53 22 25 20 68 -3 81 -11
5 -38 10 -60 10 l-41 0 0 -90z m75 35 c0 -11 -8 -21 -17 -23 -14 -3 -18 3 -18
23 0 20 4 26 18 23 9 -2 17 -12 17 -23z"/>
<path d="M2465 3605 c-56 -55 -18 -155 59 -155 81 0 122 95 67 154 -33 35 -92
36 -126 1z m89 -21 c19 -18 21 -65 4 -82 -7 -7 -21 -12 -33 -12 -47 0 -63 66
-23 94 28 20 33 20 52 0z"/>
<path d="M2650 3540 l0 -90 35 0 c42 0 90 22 99 45 27 71 -16 135 -90 135
l-44 0 0 -90z m94 28 c15 -25 -4 -72 -32 -76 -20 -3 -22 1 -22 48 0 47 2 51
21 48 12 -2 27 -11 33 -20z"/>
<path d="M2830 3540 c0 -83 1 -90 20 -90 16 0 20 7 20 37 l0 38 27 -38 c18
-25 34 -37 50 -37 26 0 24 9 -10 47 -19 21 -19 24 -4 41 40 44 10 92 -59 92
l-44 0 0 -90z m75 35 c0 -11 -8 -21 -17 -23 -14 -3 -18 3 -18 23 0 20 4 26 18
23 9 -2 17 -12 17 -23z"/>
<path d="M3000 3540 c0 -83 1 -90 20 -90 19 0 20 7 20 90 0 83 -1 90 -20 90
-19 0 -20 -7 -20 -90z"/>
<path d="M3099 3604 c-35 -37 -33 -98 4 -130 55 -47 137 -19 137 46 0 28 -2
30 -40 30 -29 0 -40 -4 -40 -15 0 -8 9 -15 20 -15 25 0 26 -16 2 -29 -46 -24
-84 55 -46 93 18 19 28 20 54 6 13 -7 21 -6 30 5 9 11 7 16 -9 24 -36 20 -86
13 -112 -15z"/>
<path d="M3280 3556 c0 -85 12 -106 64 -106 57 0 70 19 74 104 4 72 3 76 -17
76 -19 0 -21 -6 -21 -57 0 -66 -9 -86 -36 -81 -16 3 -19 14 -22 71 -3 59 -5
67 -22 67 -18 0 -20 -7 -20 -74z"/>
<path d="M3460 3540 l0 -90 50 0 c43 0 50 3 50 20 0 16 -7 20 -30 20 -39 0
-41 27 -3 32 17 2 29 10 31 21 3 13 -3 17 -27 17 -24 0 -31 4 -31 20 0 16 7
20 30 20 20 0 30 5 30 15 0 11 -12 15 -50 15 l-50 0 0 -90z"/>
<path d="M3600 3615 c0 -10 11 -15 35 -15 19 0 35 -5 35 -10 0 -6 -15 -34 -33
-63 -18 -29 -37 -58 -41 -64 -5 -10 11 -13 68 -13 69 0 76 2 76 20 0 16 -7 20
-36 20 -42 0 -42 3 11 85 l35 55 -75 0 c-60 0 -75 -3 -75 -15z"/>
</g>
</svg>
